<svg width="56" height="56" viewBox="0 0 56 56" fill="none" xmlns="http://www.w3.org/2000/svg">
<g id="CSS ICON">
<path id="Vector" d="M10.3284 47.6018L6.39795 3.5H49.6019L45.6662 47.5948L27.9737 52.5L10.3284 47.6018Z" fill="#1572B6"/>
<path id="Vector_2" d="M28 48.7514L42.2975 44.7877L45.661 7.10669H28V48.7514Z" fill="#33A9DC"/>
<path id="Vector_3" d="M28 23.0842H35.1575L35.651 17.5455H28V12.1362H41.5625L41.433 13.587L40.1047 28.4935H28V23.0842Z" fill="white"/>
<path id="Vector_4" d="M28.0332 37.1315L28.0087 37.1385L21.9852 35.511L21.6002 31.1973H16.1699L16.9277 39.69L28.0069 42.7665L28.0332 42.7595V37.1315Z" fill="#EBEBEB"/>
<path id="Vector_5" d="M34.6974 28.2642L34.0464 35.5074L28.0142 37.1349V42.7629L39.1022 39.6899L39.1844 38.7764L40.1242 28.2642H34.6974Z" fill="white"/>
<path id="Vector_6" d="M28.0195 12.1362V17.5455H14.954L14.8455 16.3292L14.5987 13.587L14.4692 12.1362H28.0195ZM28.0002 23.0842V28.4935H22.052L21.9435 27.2772L21.6985 24.535L21.569 23.0842H28.0002Z" fill="#EBEBEB"/>
</g>
</svg>
