<svg width="38" height="56" viewBox="0 0 38 56" fill="none" xmlns="http://www.w3.org/2000/svg">
<g id="FIGMA ICON" clip-path="url(#clip0_375_1176)">
<path id="Vector" d="M9.66683 55.9999C14.8188 55.9999 19.0002 51.8186 19.0002 46.6666V37.3333H9.66683C4.51483 37.3333 0.333496 41.5146 0.333496 46.6666C0.333496 51.8186 4.51483 55.9999 9.66683 55.9999Z" fill="#0ACF83"/>
<path id="Vector_2" d="M0.333496 28.0001C0.333496 22.8481 4.51483 18.6667 9.66683 18.6667H19.0002V37.3334H9.66683C4.51483 37.3334 0.333496 33.1521 0.333496 28.0001Z" fill="#A259FF"/>
<path id="Vector_3" d="M0.333496 9.33333C0.333496 4.18133 4.51483 0 9.66683 0H19.0002V18.6667H9.66683C4.51483 18.6667 0.333496 14.4853 0.333496 9.33333Z" fill="#F24E1E"/>
<path id="Vector_4" d="M19 0H28.3333C33.4853 0 37.6667 4.18133 37.6667 9.33333C37.6667 14.4853 33.4853 18.6667 28.3333 18.6667H19V0Z" fill="#FF7262"/>
<path id="Vector_5" d="M37.6667 28.0001C37.6667 33.1521 33.4853 37.3334 28.3333 37.3334C23.1813 37.3334 19 33.1521 19 28.0001C19 22.8481 23.1813 18.6667 28.3333 18.6667C33.4853 18.6667 37.6667 22.8481 37.6667 28.0001Z" fill="#1ABCFE"/>
</g>
<defs>
<clipPath id="clip0_375_1176">
<rect width="37.3333" height="56" fill="white" transform="translate(0.333496)"/>
</clipPath>
</defs>
</svg>
