<svg width="57" height="56" viewBox="0 0 57 56" fill="none" xmlns="http://www.w3.org/2000/svg">
<g id="GIT ICON" clip-path="url(#clip0_375_1196)">
<g id="Group">
<path id="Vector" d="M43.2085 0H13.4585C6.20976 0 0.333496 5.87626 0.333496 13.125V42.875C0.333496 50.1237 6.20976 56 13.4585 56H43.2085C50.4572 56 56.3335 50.1237 56.3335 42.875V13.125C56.3335 5.87626 50.4572 0 43.2085 0Z" fill="#F03C2E"/>
<g id="Clip path group">
<mask id="mask0_375_1196" style="mask-type:luminance" maskUnits="userSpaceOnUse" x="6" y="6" width="45" height="44">
<g id="skillIconsGit0">
<path id="Vector_2" d="M6.4585 6.125H50.2085V49.875H6.4585V6.125Z" fill="white"/>
</g>
</mask>
<g mask="url(#mask0_375_1196)">
<g id="Group_2">
<path id="Vector_3" d="M49.3827 26.0517L30.2817 6.95071C29.8879 6.55643 29.3859 6.2879 28.8393 6.17914C28.2928 6.07038 27.7263 6.12627 27.2115 6.33975C26.8697 6.48138 26.5593 6.689 26.2978 6.95071L22.3329 10.9156L27.3642 15.9468C28.5345 15.5367 29.8743 15.8169 30.8067 16.7494C31.2505 17.1941 31.5603 17.7546 31.7008 18.3669C31.8412 18.9793 31.8066 19.6188 31.6009 20.2124L36.4504 25.0619C37.6236 24.6572 38.977 24.9182 39.9134 25.8575C40.3825 26.3264 40.7019 26.9239 40.8313 27.5745C40.9606 28.225 40.894 28.8993 40.6399 29.5119C40.2993 30.3333 39.6464 30.9858 38.8248 31.326C38.0032 31.6662 37.0802 31.6662 36.2586 31.326C35.8517 31.1574 35.482 30.9104 35.1707 30.5989C34.1863 29.6145 33.9431 28.1653 34.4408 26.9526L29.9181 22.4299V34.3314C30.2464 34.4939 30.5464 34.708 30.8067 34.9658C31.4354 35.5946 31.7886 36.4473 31.7886 37.3365C31.7886 38.2257 31.4354 39.0785 30.8067 39.7072C30.1779 40.336 29.3251 40.6892 28.436 40.6892C27.5468 40.6892 26.694 40.336 26.0653 39.7072C25.596 39.2385 25.2763 38.6411 25.1468 37.9907C25.0173 37.3402 25.0837 36.6659 25.3377 36.0532C25.5063 35.6464 25.7535 35.2769 26.0653 34.9658C26.3892 34.6432 26.7488 34.3984 27.1632 34.2343V22.2221C26.7521 22.054 26.3788 21.8054 26.0653 21.4908C25.5945 21.0206 25.2745 20.4208 25.1459 19.768C25.0174 19.1151 25.0861 18.4388 25.3434 17.8252L20.3806 12.8655L7.28294 25.9494C6.88865 26.3434 6.62009 26.8455 6.51126 27.3922C6.40242 27.9389 6.4582 28.5056 6.67154 29.0206C6.81331 29.3625 7.02107 29.6732 7.28294 29.9348L26.3853 49.0343C26.6468 49.2959 26.9573 49.5035 27.299 49.6452C27.9894 49.931 28.765 49.931 29.4554 49.6452C29.7972 49.5035 30.1076 49.2959 30.3692 49.0343L49.3827 30.0509C49.6445 29.7893 49.8522 29.4787 49.9939 29.1368C50.1356 28.7949 50.2086 28.4284 50.2087 28.0583C50.2087 27.6882 50.1358 27.3217 49.994 26.9797C49.8523 26.6378 49.6446 26.3271 49.3827 26.0655" fill="white"/>
</g>
</g>
</g>
</g>
</g>
<defs>
<clipPath id="clip0_375_1196">
<rect width="56" height="56" fill="white" transform="translate(0.333496)"/>
</clipPath>
</defs>
</svg>
