<svg width="57" height="56" viewBox="0 0 57 56" fill="none" xmlns="http://www.w3.org/2000/svg">
<g id="GITHUB PAGES ICON" clip-path="url(#clip0_375_1228)">
<rect width="56" height="56" transform="translate(0.666504)" fill="black"/>
<path id="Vector" d="M33.5385 30.6273H32.8478V23.0019H35.1765C37.0782 23.0019 37.7292 24.0986 37.7292 25.2886C37.7292 26.4786 37.0758 27.5753 35.1765 27.5753H33.5408L33.5385 30.6273ZM33.5385 26.9359H35.2652C35.4919 26.9698 35.7234 26.9512 35.9418 26.8815C36.1602 26.8118 36.3596 26.6929 36.5249 26.534C36.6901 26.3751 36.8166 26.1804 36.8948 25.9649C36.9729 25.7494 37.0005 25.5188 36.9755 25.2909C37.0008 25.0631 36.9735 24.8325 36.8957 24.6169C36.8179 24.4013 36.6916 24.2064 36.5266 24.0473C36.3616 23.8881 36.1623 23.769 35.944 23.699C35.7257 23.629 35.4943 23.6101 35.2675 23.6436H33.5385V26.9359ZM40.2608 26.0726C39.7419 26.0689 39.2263 26.1558 38.7372 26.3293V25.7179C39.2229 25.5302 39.7401 25.4367 40.2608 25.4426C41.7868 25.4426 42.1835 26.1356 42.1835 27.1506V30.6273H41.7868L41.6328 30.2213C41.1867 30.5452 40.6511 30.7229 40.0998 30.7299C39.8701 30.7656 39.6354 30.749 39.413 30.6814C39.1906 30.6139 38.9863 30.4971 38.8152 30.3397C38.6441 30.1823 38.5108 29.9884 38.4249 29.7724C38.3391 29.5564 38.3031 29.3238 38.3195 29.0919C38.3195 28.2286 38.7978 27.5869 40.1302 27.5053L41.4718 27.4236V27.1389C41.4718 26.3969 41.2082 26.0726 40.2608 26.0726ZM40.0788 28.0559C39.3555 28.1259 39.0405 28.5039 39.0405 29.0943C39.0405 29.5516 39.1525 30.0999 40.1185 30.0999C40.5996 30.0996 41.07 29.9585 41.4718 29.6939V27.9253L40.0788 28.0559ZM44.4188 29.2063C44.3105 29.3026 44.2415 29.4355 44.2252 29.5796C44.2252 29.8363 44.3488 29.9483 44.6125 29.9763L46.3392 30.1816C47.2958 30.2843 47.7345 30.6599 47.7345 31.5443C47.7345 32.7856 46.4932 33.2709 45.0908 33.2709C43.6675 33.2709 42.8135 32.8556 42.8135 31.7379C42.8199 31.4312 42.9254 31.1347 43.1142 30.8929C43.3031 30.651 43.5651 30.4768 43.8612 30.3963V30.3846C43.753 30.3112 43.666 30.2108 43.6087 30.0933C43.5513 29.9758 43.5258 29.8454 43.5345 29.7149C43.5428 29.5777 43.582 29.4442 43.6491 29.3242C43.7161 29.2042 43.8094 29.1009 43.9218 29.0219C43.6429 28.8492 43.4184 28.6012 43.2743 28.3064C43.1303 28.0116 43.0724 27.6822 43.1075 27.3559C43.1075 26.3083 43.5555 25.4426 45.0908 25.4426C45.3656 25.4414 45.6393 25.4759 45.9052 25.5453H47.6318V25.9303L46.7802 26.1753C46.9911 26.5309 47.0933 26.9406 47.0742 27.3536C47.0742 28.4013 46.6262 29.2669 45.0908 29.2669C44.8653 29.2692 44.6401 29.2481 44.4188 29.2039V29.2063ZM44.7152 30.5783C44.0432 30.7299 43.4738 31.0449 43.4738 31.6983C43.4738 32.4496 44.0432 32.6619 45.0908 32.6619C46.1058 32.6619 47.0625 32.4076 47.0625 31.5419C47.0625 31.0263 46.8175 30.8209 46.1992 30.7486L44.7152 30.5783ZM46.4115 27.3559C46.4115 26.6839 46.2808 26.0633 45.0908 26.0633C43.9008 26.0633 43.7678 26.6839 43.7678 27.3559C43.7678 28.0279 43.9008 28.6463 45.0908 28.6463C46.2808 28.6463 46.4115 28.0256 46.4115 27.3536V27.3559ZM50.2312 25.4426C51.9578 25.4426 52.1632 26.6233 52.1632 28.0863V28.4129H48.8078C48.8498 29.2973 49.0832 30.0999 50.2312 30.0999C50.8046 30.1302 51.3775 30.033 51.9088 29.8153V30.4243C51.3771 30.6421 50.8056 30.7462 50.2312 30.7299C48.5138 30.7299 48.0962 29.5516 48.0962 28.0863C48.0962 26.6209 48.5138 25.4426 50.2312 25.4426ZM48.8078 27.8319H51.4515C51.4515 26.9289 51.4002 26.0749 50.2312 26.0749C49.0505 26.0749 48.8382 26.9149 48.8078 27.8319ZM54.8768 27.7106C56.3212 27.8436 56.6665 28.3313 56.6665 29.1643C56.6665 29.9483 56.1695 30.7299 54.6225 30.7299C54.1077 30.7235 53.5969 30.6377 53.1082 30.4756V29.8666C53.5995 30.0319 54.1158 30.1109 54.6342 30.0999C55.6912 30.0999 55.9758 29.6519 55.9758 29.1736C55.9758 28.7069 55.8335 28.3803 54.8278 28.3009C53.3532 28.1679 53.0475 27.6476 53.0475 26.9476C53.0475 26.2243 53.5142 25.4426 54.9492 25.4426C55.449 25.431 55.9462 25.5182 56.4122 25.6993V26.3059C55.9392 26.1409 55.4406 26.0619 54.9398 26.0726C53.9318 26.0726 53.7195 26.4506 53.7195 26.9499C53.7195 27.3933 53.9015 27.6266 54.8768 27.7106ZM6.37384 26.1729H3.8865C3.85556 26.1729 3.82589 26.1852 3.80401 26.2071C3.78213 26.229 3.76984 26.2587 3.76984 26.2896V27.5076C3.76984 27.5385 3.78213 27.5682 3.80401 27.5901C3.82589 27.612 3.85556 27.6243 3.8865 27.6243H4.85717V29.1386C4.58898 29.2015 4.31332 29.2267 4.03817 29.2133C3.3265 29.2133 2.3325 28.9519 2.3325 26.7679C2.3325 24.5839 3.36617 24.2946 4.33917 24.2946C4.82618 24.2786 5.31193 24.3529 5.77184 24.5139C5.78898 24.5174 5.8067 24.517 5.82367 24.5128C5.84064 24.5085 5.85644 24.5005 5.86988 24.4893C5.88333 24.4781 5.89408 24.464 5.90134 24.448C5.9086 24.4321 5.91219 24.4148 5.91184 24.3973L6.19184 23.2213C6.19204 23.2035 6.18789 23.1859 6.17976 23.17C6.17163 23.1541 6.15976 23.1405 6.14517 23.1303C5.49087 22.8129 4.76244 22.6798 4.03817 22.7453C2.36984 22.7453 0.666504 23.4499 0.666504 26.8519C0.666504 30.2539 2.6195 30.7603 4.2645 30.7603C5.03469 30.7779 5.79393 30.5756 6.45317 30.1769C6.46632 30.1665 6.47663 30.1529 6.48316 30.1374C6.48968 30.1219 6.49221 30.105 6.4905 30.0883V26.2896C6.4905 26.2587 6.47821 26.229 6.45633 26.2071C6.43445 26.1852 6.40478 26.1729 6.37384 26.1729ZM19.3122 23.1536C19.3122 23.1227 19.2999 23.093 19.278 23.0711C19.2561 23.0492 19.2264 23.0369 19.1955 23.0369H17.7932C17.7622 23.0369 17.7326 23.0492 17.7107 23.0711C17.6888 23.093 17.6765 23.1227 17.6765 23.1536V25.8626H15.4925V23.1536C15.4925 23.1383 15.4895 23.1231 15.4836 23.109C15.4778 23.0948 15.4692 23.0819 15.4583 23.0711C15.4475 23.0603 15.4346 23.0517 15.4205 23.0458C15.4063 23.04 15.3912 23.0369 15.3758 23.0369H13.9758C13.9605 23.0369 13.9453 23.04 13.9312 23.0458C13.917 23.0517 13.9042 23.0603 13.8933 23.0711C13.8825 23.0819 13.8739 23.0948 13.8681 23.109C13.8622 23.1231 13.8592 23.1383 13.8592 23.1536V30.4919C13.8592 30.5229 13.8715 30.5526 13.8933 30.5744C13.9152 30.5963 13.9449 30.6086 13.9758 30.6086H15.3758C15.4068 30.6086 15.4365 30.5963 15.4583 30.5744C15.4802 30.5526 15.4925 30.5229 15.4925 30.4919V27.3536H17.6788L17.6742 30.4919C17.6742 30.5229 17.6865 30.5526 17.7083 30.5744C17.7302 30.5963 17.7599 30.6086 17.7908 30.6086H19.1978C19.2288 30.6086 19.2585 30.5963 19.2803 30.5744C19.3022 30.5526 19.3145 30.5229 19.3145 30.4919L19.3122 23.1536ZM9.07117 24.1149C9.06933 23.9362 9.01461 23.762 8.91391 23.6143C8.81322 23.4666 8.67105 23.352 8.50533 23.285C8.33961 23.218 8.15777 23.2015 7.9827 23.2377C7.80764 23.2738 7.64721 23.361 7.52162 23.4882C7.39604 23.6154 7.31092 23.777 7.277 23.9525C7.24308 24.128 7.26188 24.3096 7.33102 24.4745C7.40017 24.6393 7.51657 24.78 7.66555 24.8788C7.81452 24.9776 7.98941 25.0301 8.16817 25.0296C8.40911 25.0278 8.63949 24.9304 8.80877 24.759C8.97805 24.5875 9.07241 24.3559 9.07117 24.1149ZM8.97317 28.9403V25.5546C8.97317 25.5237 8.96088 25.494 8.939 25.4721C8.91712 25.4502 8.88745 25.4379 8.8565 25.4379H7.4565C7.42411 25.4414 7.3941 25.4566 7.37216 25.4806C7.35023 25.5047 7.33789 25.536 7.3375 25.5686V30.4219C7.3375 30.5619 7.42617 30.6063 7.5405 30.6063H8.8005C8.9405 30.6063 8.97317 30.5363 8.97317 30.4196V28.9403ZM24.7558 25.4473H23.3628C23.3319 25.4473 23.3022 25.4596 23.2803 25.4814C23.2585 25.5033 23.2462 25.533 23.2462 25.5639V29.1619C22.9916 29.3287 22.6941 29.4178 22.3898 29.4186C21.8882 29.4186 21.7552 29.1923 21.7552 28.7023V25.5663C21.7552 25.5353 21.7429 25.5057 21.721 25.4838C21.6991 25.4619 21.6694 25.4496 21.6385 25.4496H20.2292C20.2138 25.4496 20.1987 25.4526 20.1845 25.4585C20.1704 25.4643 20.1575 25.4729 20.1467 25.4838C20.1358 25.4946 20.1272 25.5075 20.1214 25.5216C20.1155 25.5358 20.1125 25.551 20.1125 25.5663V28.9403C20.1125 30.4009 20.9245 30.7579 22.0445 30.7579C22.6323 30.7416 23.2047 30.5666 23.7012 30.2516C23.7132 30.352 23.7303 30.4517 23.7525 30.5503C23.7627 30.5688 23.7775 30.5844 23.7955 30.5954C23.8135 30.6065 23.8341 30.6126 23.8552 30.6133L24.7535 30.6086C24.7844 30.6086 24.8141 30.5963 24.836 30.5744C24.8579 30.5526 24.8702 30.5229 24.8702 30.4919V25.5639C24.8702 25.5486 24.8672 25.5334 24.8613 25.5193C24.8554 25.5051 24.8468 25.4923 24.836 25.4814C24.8252 25.4706 24.8123 25.462 24.7982 25.4562C24.784 25.4503 24.7688 25.4473 24.7535 25.4473H24.7558ZM28.6338 25.2839C28.168 25.2803 27.7097 25.4011 27.3062 25.6339V23.1536C27.3062 23.1383 27.3032 23.1231 27.2973 23.109C27.2914 23.0948 27.2828 23.0819 27.272 23.0711C27.2612 23.0603 27.2483 23.0517 27.2341 23.0458C27.22 23.04 27.2048 23.0369 27.1895 23.0369H25.7848C25.7695 23.0369 25.7543 23.04 25.7402 23.0458C25.726 23.0517 25.7132 23.0603 25.7023 23.0711C25.6915 23.0819 25.6829 23.0948 25.6771 23.109C25.6712 23.1231 25.6682 23.1383 25.6682 23.1536V30.4919C25.6682 30.5229 25.6805 30.5526 25.7023 30.5744C25.7242 30.5963 25.7539 30.6086 25.7848 30.6086H26.7602C26.7814 30.6084 26.8022 30.6025 26.8203 30.5914C26.8384 30.5803 26.8531 30.5645 26.8628 30.5456C26.8907 30.4352 26.9102 30.3229 26.9212 30.2096C27.393 30.5838 27.9831 30.7766 28.5848 30.7533C29.8635 30.7533 30.5962 30.1046 30.5962 27.8413C30.5962 25.5779 29.4248 25.2839 28.6338 25.2839ZM28.0855 29.4163C27.8001 29.409 27.5214 29.3286 27.2758 29.1829V26.8589C27.4968 26.7326 27.7414 26.6531 27.9945 26.6256C28.4962 26.5813 28.9792 26.7329 28.9792 27.9276C28.9792 29.1876 28.7598 29.4349 28.0855 29.4163ZM12.9772 25.4356H11.9272L11.9225 24.0473C11.9225 23.9936 11.8968 23.9679 11.8362 23.9679H10.4012C10.3452 23.9679 10.3172 23.9913 10.3172 24.0449V25.4799L9.54717 25.6666C9.52337 25.6741 9.5026 25.689 9.4879 25.7092C9.4732 25.7293 9.46535 25.7537 9.4655 25.7786V26.6816C9.4655 26.7125 9.4778 26.7422 9.49967 26.7641C9.52155 26.786 9.55123 26.7983 9.58217 26.7983H10.3172V28.9683C10.3172 30.5829 11.4465 30.7416 12.2118 30.7416C12.4945 30.7319 12.7746 30.6848 13.0448 30.6016C13.0648 30.5931 13.0818 30.5788 13.0935 30.5604C13.1051 30.5421 13.111 30.5207 13.1102 30.4989L13.1125 29.5049C13.1125 29.474 13.1002 29.4443 13.0783 29.4224C13.0565 29.4006 13.0268 29.3883 12.9958 29.3883C12.9352 29.3883 12.7765 29.4116 12.6155 29.4116C12.0998 29.4116 11.9248 29.1736 11.9248 28.8609V26.7983H12.9772C12.9925 26.7983 13.0077 26.7953 13.0218 26.7894C13.036 26.7835 13.0488 26.7749 13.0597 26.7641C13.0705 26.7533 13.0791 26.7404 13.085 26.7263C13.0908 26.7121 13.0938 26.6969 13.0938 26.6816V25.5523C13.0938 25.5213 13.0815 25.4917 13.0597 25.4698C13.0378 25.4479 13.0081 25.4356 12.9772 25.4356Z" fill="white"/>
</g>
<defs>
<clipPath id="clip0_375_1228">
<rect width="56" height="56" fill="white" transform="translate(0.666504)"/>
</clipPath>
</defs>
</svg>
