<svg width="57" height="56" viewBox="0 0 57 56" fill="none" xmlns="http://www.w3.org/2000/svg">
<g id="HTML ICON">
<path id="Vector" d="M10.6622 47.6018L6.72998 3.5H49.9375L46 47.5948L28.3075 52.5L10.6622 47.6018Z" fill="#E44F26"/>
<path id="Vector_2" d="M28.3335 48.7514L42.631 44.7877L45.9945 7.10669H28.3335V48.7514Z" fill="#F1662A"/>
<path id="Vector_3" d="M28.3335 23.4622H21.176L20.6825 17.9234H28.3335V12.5142H14.771L14.9005 13.9667L16.2287 28.8714H28.3335V23.4622ZM28.3335 37.5094L28.309 37.5164L22.2855 35.8907L21.9005 31.5769H16.4702L17.228 40.0679L28.309 43.1444L28.3335 43.1374V37.5094Z" fill="#EBEBEB"/>
<path id="Vector_4" d="M28.3145 23.4622V28.8714H34.975L34.3485 35.8872L28.3145 37.5147V43.1427L39.4042 40.0679L39.4847 39.1544L40.7552 24.9147L40.8882 23.4622H39.4305H28.3145ZM28.3145 12.5142V17.9234H41.38L41.4885 16.7089L41.7352 13.9667L41.8647 12.5142H28.3145Z" fill="white"/>
</g>
</svg>
