<svg width="56" height="56" viewBox="0 0 56 56" fill="none" xmlns="http://www.w3.org/2000/svg">
<g id="JS ICON">
<path id="Vector" d="M3.5 2.33325H52.5V51.3333H3.5V2.33325Z" fill="#F5DE19"/>
<path id="Vector_2" d="M36.4156 32.3967C36.8331 33.2447 37.4818 33.9575 38.2868 34.4529C39.0918 34.9483 40.0204 35.2061 40.9656 35.1967C42.8731 35.1967 44.0929 34.2429 44.0929 32.9217C44.0929 31.3467 42.8399 30.7832 40.7399 29.8644L39.5884 29.3709C36.2634 27.9552 34.0584 26.1824 34.0584 22.4339C34.0584 18.9812 36.6834 16.3509 40.8011 16.3509C42.1341 16.2547 43.4659 16.553 44.6305 17.2087C45.795 17.8644 46.7407 18.8485 47.3496 20.0382L43.7499 22.3394C43.5154 21.7495 43.1072 21.2449 42.5793 20.8923C42.0514 20.5398 41.4288 20.356 40.7941 20.3654C40.5172 20.3377 40.2376 20.368 39.973 20.4543C39.7084 20.5406 39.4647 20.6811 39.2574 20.8668C39.0502 21.0525 38.8838 21.2794 38.7691 21.5329C38.6543 21.7865 38.5936 22.0611 38.5909 22.3394C38.5909 23.7202 39.4466 24.2802 41.4224 25.1394L42.5739 25.6329C46.4869 27.3112 48.6989 29.0209 48.6989 32.8657C48.6989 37.0114 45.4421 39.2829 41.0689 39.2829C39.3649 39.3915 37.6659 39.0046 36.177 38.169C34.688 37.3334 33.4727 36.0847 32.6776 34.5737L36.4156 32.3967ZM20.1494 32.7957C20.8721 34.0784 21.5301 35.1634 23.1121 35.1634C24.6241 35.1634 25.5796 34.5719 25.5796 32.2707V16.6134H30.1839V32.3319C30.1839 37.0989 27.3839 39.2689 23.3081 39.2689C21.8674 39.3477 20.4366 38.9886 19.2038 38.239C17.971 37.4894 16.9939 36.3843 16.4009 35.0689L20.1494 32.7957Z" fill="black"/>
</g>
</svg>
