<svg width="56" height="56" viewBox="0 0 56 56" fill="none" xmlns="http://www.w3.org/2000/svg">
<g id="MOCHA ICON">
<path id="Vector" d="M27.9998 0C27.4814 0 26.9629 0.135625 26.4966 0.406L4.85432 12.9106C3.92245 13.4518 3.35107 14.4134 3.35107 15.4954V40.5046C3.35107 41.5568 3.92245 42.5486 4.85432 43.0894L26.4966 55.594C26.9529 55.8599 27.4717 55.9999 27.9998 55.9999C28.528 55.9999 29.0467 55.8599 29.5031 55.594L51.1453 43.0894C52.047 42.5486 52.6184 41.5568 52.6486 40.5046V15.4954C52.6486 14.4432 52.0772 13.4518 51.1453 12.9106L29.5031 0.406C29.0466 0.14029 28.528 0.000207783 27.9998 0ZM27.9701 3.80275C28.4207 3.80275 28.8722 3.92262 29.2629 4.16325L47.959 14.9546C48.7706 15.4052 49.2518 16.247 49.2518 17.1789V38.7607C49.2518 39.6624 48.7706 40.5348 47.959 40.9859L29.2629 51.7772C28.8735 52.0144 28.426 52.1392 27.9701 52.1377C27.5141 52.1392 27.0667 52.0144 26.6773 51.7772L7.97982 40.9859C7.16826 40.5352 6.68789 39.6926 6.68789 38.7607V17.1789C6.68789 16.2772 7.16826 15.4052 7.97982 14.9546L26.6773 4.16325C27.0667 3.92605 27.5141 3.80127 27.9701 3.80275ZM27.9701 4.704C27.6993 4.704 27.3987 4.79456 27.1283 4.94462L8.43045 15.7369C8.17553 15.8893 7.96419 16.1048 7.81682 16.3627C7.66946 16.6206 7.59104 16.9121 7.58914 17.2091V38.7918C7.58914 39.3929 7.91945 39.9643 8.43045 40.2649L27.1279 51.0554C27.3685 51.2059 27.6691 51.2964 27.9696 51.2964C28.2702 51.2964 28.5406 51.2059 28.8109 51.0558L47.5075 40.2649C47.7625 40.1123 47.9739 39.8966 48.1214 39.6386C48.2688 39.3806 48.3473 39.089 48.3493 38.7918V17.2086C48.3473 16.9116 48.2688 16.6201 48.1214 16.3622C47.9739 16.1043 47.7625 15.8888 47.5075 15.7364L28.8114 4.94506C28.541 4.79456 28.2706 4.70444 27.9701 4.70444V4.704ZM28.0751 13.1806C27.9246 13.391 28.1048 13.9024 28.4951 14.5031C29.1566 15.6454 28.0751 16.2763 28.0751 16.2763C28.1053 16.0961 27.9849 15.5251 27.7443 15.2543C27.0229 14.1724 27.6844 13.6618 28.0751 13.1806ZM26.8728 14.2931C26.7525 14.4134 26.8728 14.7739 27.1436 15.1646C27.5943 15.9464 26.8724 16.3669 26.8724 16.3669C26.8724 16.2466 26.8129 15.8559 26.6624 15.7058C26.1816 14.9542 26.6024 14.6239 26.8728 14.2931ZM24.6783 16.8787H30.3291C30.5093 16.8787 30.6301 17.0284 30.6301 17.1789C30.6301 18.2306 30.4796 21.7477 28.9763 23.4307C28.95 23.4602 28.9176 23.4836 28.8813 23.4993C28.8451 23.515 28.8058 23.5227 28.7663 23.5217H26.2411C26.2016 23.5227 26.1624 23.5152 26.1261 23.4995C26.0899 23.4839 26.0574 23.4606 26.0311 23.4312C24.5283 21.7175 24.3773 18.2009 24.3773 17.1789C24.3773 16.9982 24.5283 16.8787 24.6783 16.8787ZM25.5498 17.8106C25.4702 17.811 25.394 17.8427 25.3377 17.899C25.2814 17.9553 25.2496 18.0316 25.2493 18.1112C25.2794 18.9525 25.3998 21.3574 26.4218 22.5597C26.4481 22.5891 26.4806 22.6124 26.5168 22.628C26.5531 22.6437 26.5923 22.6512 26.6318 22.6502H28.4058C28.4959 22.6502 28.5554 22.6196 28.646 22.5597C29.668 21.3272 29.8185 18.9525 29.8185 18.1112C29.8183 18.0314 29.7865 17.955 29.7301 17.8986C29.6737 17.8422 29.5973 17.8104 29.5175 17.8102L25.5498 17.8106ZM29.3373 19.8542C29.2169 20.6657 28.9763 21.5976 28.4653 22.1992C28.4054 22.2591 28.3454 22.2884 28.2851 22.2884H26.7823C26.7219 22.2884 26.6318 22.2591 26.602 22.1987C26.2411 21.7481 26.0009 21.147 25.8508 20.5157C25.8508 20.5157 27.5943 20.7559 28.5861 20.3949C29.3075 20.1246 29.3373 19.8542 29.3373 19.8542ZM8.83689 21.3264H24.1673C24.1673 21.4467 24.1975 21.5377 24.1975 21.658H8.83689V21.3264ZM30.8711 21.3264H47.1623V21.658H30.8401C30.8401 21.5377 30.8707 21.4467 30.8707 21.3264H30.8711ZM20.9513 24.6032C21.3831 24.6047 21.8109 24.6863 22.213 24.8439C22.6041 24.9939 22.9349 25.2346 23.2053 25.5049C23.4756 25.7753 23.6865 26.1061 23.8366 26.4972C23.9942 26.8785 24.0759 27.2868 24.0772 27.6994V27.7292C24.0772 28.1501 23.9871 28.5416 23.8366 28.9323C23.6843 29.3037 23.4596 29.641 23.1755 29.9246C22.9047 30.1949 22.574 30.4356 22.1833 30.5856C21.7926 30.7663 21.3721 30.8249 20.9211 30.8249C20.489 30.8239 20.0609 30.7427 19.6584 30.5856C19.2673 30.4356 18.9366 30.1949 18.6662 29.9246C18.3958 29.6537 18.1849 29.323 18.0349 28.9323C17.8774 28.5507 17.7956 28.142 17.7943 27.7292V27.6994C17.7943 27.2786 17.8844 26.8879 18.0349 26.4972C18.1871 26.1258 18.4118 25.7885 18.6959 25.5049C18.9668 25.2346 19.2975 24.9939 19.6882 24.8434C20.0789 24.6632 20.5002 24.6032 20.9513 24.6032ZM29.2476 24.6032C29.5179 24.6032 29.7581 24.633 29.9983 24.6632C30.2389 24.7236 30.4196 24.7835 30.6301 24.8434C30.8103 24.9336 30.9906 25.0241 31.1411 25.1444C31.2911 25.2647 31.4416 25.3851 31.5917 25.5356L30.9004 26.3165C30.67 26.1099 30.418 25.9286 30.1488 25.7757C29.8785 25.6257 29.5783 25.5657 29.2174 25.5657C28.9168 25.5657 28.6762 25.6257 28.4356 25.746C28.2022 25.8613 27.9889 26.0136 27.8043 26.1971C27.6236 26.3773 27.5041 26.6171 27.3838 26.8577C27.2937 27.1281 27.2333 27.3989 27.2333 27.6692V27.6994C27.2333 28 27.2937 28.2704 27.3838 28.5407C27.4739 28.8116 27.6236 29.022 27.8038 29.232C27.9845 29.4127 28.195 29.5934 28.4356 29.6835C28.6762 29.7736 28.947 29.8637 29.2174 29.8637C29.5783 29.8637 29.9086 29.8038 30.1493 29.6537C30.4254 29.4859 30.6868 29.2949 30.9306 29.0828L31.6219 29.7732C31.4718 29.9534 31.3213 30.0742 31.1406 30.2242C30.9604 30.3747 30.7806 30.4649 30.5999 30.555C30.4196 30.6451 30.179 30.7361 29.9686 30.7659C29.6982 30.8258 29.4274 30.8249 29.157 30.8249C28.7441 30.8271 28.335 30.7457 27.9543 30.5856C27.5938 30.4356 27.2631 30.1949 26.9923 29.9246C26.7219 29.6537 26.5119 29.323 26.3618 28.9323C26.2113 28.5416 26.1216 28.1501 26.1216 27.7292V27.6994C26.1216 27.2786 26.2113 26.8577 26.3618 26.4972C26.514 26.133 26.7272 25.7974 26.9923 25.5049C27.2631 25.2346 27.5947 24.9939 27.9854 24.8434C28.3868 24.6832 28.8153 24.6017 29.2476 24.6032ZM43.3758 24.6938H44.337L46.9825 30.7357H45.87L45.2684 29.2928H42.4435L41.8117 30.7352H40.7302L43.3758 24.6938ZM9.58895 24.724H10.7006L12.5342 27.5489L14.3682 24.724H15.4808V30.7352H14.4281V26.4372L12.5342 29.2631H12.5044L10.6407 26.4674V30.7659H9.58895V24.724ZM33.7258 24.724H34.7784V27.2191H37.6642V24.724H38.7159V30.7352H37.6642V28.2104H34.7784V30.7352H33.7258V24.724ZM20.9211 25.5657C20.6205 25.5657 20.3497 25.6257 20.1095 25.746C19.8759 25.8612 19.6626 26.0135 19.4778 26.1971C19.2975 26.3773 19.1776 26.6171 19.0578 26.8577C18.9672 27.1281 18.9073 27.3989 18.9073 27.6692V27.6994C18.9073 28 18.9672 28.2704 19.0578 28.5407C19.1479 28.8116 19.2975 29.022 19.4778 29.232C19.6584 29.4127 19.8689 29.5632 20.1095 29.6835C20.3501 29.8038 20.6507 29.8637 20.9211 29.8637C21.2216 29.8637 21.4924 29.8038 21.7331 29.6835C21.9662 29.5682 22.1791 29.4159 22.3635 29.2324C22.5438 29.0517 22.6645 28.8111 22.7848 28.5709C22.875 28.3001 22.9353 28.0297 22.9353 27.7589V27.7292C22.9353 27.4286 22.875 27.1578 22.7848 26.8874C22.6947 26.6171 22.5442 26.4075 22.3635 26.1971C22.1791 26.0136 21.9662 25.8613 21.7331 25.746C21.4924 25.6257 21.2216 25.5657 20.9211 25.5657ZM43.8557 25.956L42.8337 28.3605H44.8777L43.8557 25.956ZM8.83732 32.6296H47.1632V32.9595H8.83689L8.83732 32.6296Z" fill="white"/>
</g>
</svg>
