<svg width="56" height="56" viewBox="0 0 56 56" fill="none" xmlns="http://www.w3.org/2000/svg">
<g id="NETLIFY ICON" clip-path="url(#clip0_375_1208)">
<g id="Group">
<path id="Vector" d="M42.875 0H13.125C5.87626 0 0 5.87626 0 13.125V42.875C0 50.1237 5.87626 56 13.125 56H42.875C50.1237 56 56 50.1237 56 42.875V13.125C56 5.87626 50.1237 0 42.875 0Z" fill="#242938"/>
<path id="Vector_2" d="M37.7972 21.3074L37.7812 21.3007C37.7722 21.2972 37.763 21.2939 37.7549 21.2858C37.7418 21.2718 37.732 21.2549 37.7265 21.2365C37.7209 21.2181 37.7197 21.1986 37.723 21.1797L38.605 15.7873L42.7413 19.9245L38.4396 21.7548C38.4277 21.7596 38.4149 21.7619 38.402 21.7616H38.3849C38.3765 21.7562 38.3688 21.7497 38.362 21.7423C38.2019 21.564 38.0104 21.4166 37.7972 21.3074ZM43.7966 20.9789L48.2193 25.4013C49.1378 26.3212 49.5976 26.7797 49.7654 27.3115C49.7903 27.3902 49.8109 27.469 49.8269 27.5499L39.2578 23.0738L39.2407 23.0668C39.1985 23.0498 39.1493 23.0303 39.1493 22.987C39.1493 22.9437 39.1996 22.9231 39.2418 22.9061L39.2553 22.9004L43.7966 20.9789ZM49.6466 28.9694C49.4185 29.3983 48.9735 29.8435 48.2204 30.5975L43.2342 35.5826L36.7852 34.2397L36.7509 34.2329C36.6938 34.2237 36.6334 34.2135 36.6334 34.1621C36.6089 33.8961 36.5298 33.6379 36.4012 33.4038C36.2726 33.1696 36.0972 32.9644 35.8859 32.801C35.8597 32.7747 35.8667 32.7336 35.8746 32.696C35.8746 32.6903 35.8746 32.6846 35.877 32.68L37.0897 25.2338L37.0943 25.2086C37.1013 25.1515 37.1114 25.0855 37.1628 25.0855C37.4227 25.0531 37.6736 24.9694 37.9009 24.8391C38.1282 24.7088 38.3272 24.5346 38.4864 24.3266C38.4967 24.3152 38.5035 24.3026 38.5173 24.2958C38.5538 24.2787 38.5971 24.2958 38.6347 24.3117L49.6455 28.9694H49.6466ZM42.0875 36.7293L33.8881 44.9287L35.2916 36.3027L35.2938 36.2912C35.295 36.2799 35.2973 36.2689 35.3008 36.2581C35.3122 36.2308 35.3417 36.2194 35.3703 36.208L35.3839 36.2023C35.6912 36.0712 35.9631 35.869 36.1771 35.6124C36.2044 35.5804 36.2375 35.5496 36.2797 35.5439C36.2906 35.5422 36.3018 35.5422 36.3127 35.5439L42.0862 36.7306L42.0875 36.7293ZM32.1525 46.6643L31.2283 47.5885L21.0105 32.8213L20.9991 32.8054C20.9834 32.7837 20.9663 32.7621 20.9696 32.7369C20.9707 32.7187 20.9821 32.7028 20.9947 32.689L21.0061 32.6743C21.0367 32.6286 21.063 32.5829 21.0917 32.5339L21.1144 32.4939L21.1179 32.4906C21.1339 32.4632 21.1485 32.437 21.1761 32.4221C21.2002 32.4107 21.233 32.4153 21.2592 32.421L32.5793 34.7555C32.611 34.7604 32.6409 34.7733 32.6662 34.7932C32.681 34.808 32.6843 34.824 32.6878 34.8422C32.7668 35.1409 32.9137 35.4174 33.1172 35.6499C33.3207 35.8825 33.5751 36.0649 33.8608 36.1829C33.8927 36.1988 33.8789 36.2343 33.8642 36.2719C33.8568 36.2883 33.8511 36.3056 33.847 36.3233C33.7043 37.1904 32.4813 44.6502 32.1525 46.6643ZM30.2221 48.5937C29.5409 49.2681 29.1393 49.6251 28.6851 49.769C28.2373 49.9105 27.7568 49.9105 27.309 49.769C26.7774 49.6001 26.3176 49.1414 25.3991 48.2218L15.1379 37.9607L17.8181 33.8037C17.8295 33.7829 17.845 33.7647 17.8638 33.7502C17.8922 33.7296 17.9333 33.7388 17.9677 33.7502C18.5828 33.9359 19.2432 33.9024 19.8365 33.6554C19.8673 33.6441 19.8982 33.6362 19.9222 33.6578C19.934 33.6688 19.9448 33.681 19.9542 33.6944L30.2221 48.5947V48.5937ZM14.1485 36.9712L11.7948 34.6175L16.4432 32.6343C16.4551 32.6291 16.4679 32.6264 16.4808 32.6264C16.5196 32.6264 16.5425 32.6652 16.5631 32.7006C16.6097 32.7723 16.6593 32.8423 16.7114 32.9104L16.7261 32.9287C16.7398 32.948 16.7307 32.9675 16.7171 32.9858L14.1496 36.9712H14.1485ZM10.7529 33.5756L7.77481 30.5975C7.26841 30.0909 6.90091 29.7236 6.64519 29.4075L15.7003 31.2857L15.7347 31.2914C15.7905 31.3004 15.8522 31.3107 15.8522 31.3632C15.8522 31.4202 15.7848 31.4465 15.7277 31.4682L15.7014 31.4795L10.7529 33.5756ZM6.125 27.8763C6.13538 27.6844 6.16992 27.4947 6.22781 27.3115C6.39647 26.7797 6.85519 26.3212 7.77481 25.4013L11.5859 21.5905C13.3406 24.1371 15.1001 26.6804 16.8643 29.2205C16.8949 29.2614 16.9293 29.3071 16.8938 29.3412C16.7274 29.525 16.5607 29.7258 16.4432 29.9439C16.4305 29.9719 16.4108 29.9962 16.3861 30.0146C16.3712 30.0237 16.3555 30.0202 16.338 30.0167H16.3358L6.125 27.8752V27.8763ZM12.6059 20.5705L17.7301 15.446C18.2118 15.6571 19.9644 16.3976 21.532 17.0595C22.7187 17.5616 23.8004 18.0179 24.1404 18.1664C24.1747 18.18 24.2056 18.1937 24.2202 18.2279C24.2294 18.2484 24.2248 18.2747 24.2202 18.2963C24.1393 18.6662 24.1515 19.0504 24.2557 19.4145C24.3598 19.7785 24.5527 20.111 24.817 20.3821C24.8513 20.4165 24.817 20.4652 24.7874 20.5077L24.7715 20.5317L19.5685 28.5905C19.557 28.6132 19.5401 28.6328 19.5193 28.6476C19.4919 28.6647 19.4532 28.6568 19.4213 28.6487C19.2189 28.5957 19.0108 28.5673 18.8016 28.5642C18.6145 28.5642 18.4113 28.5986 18.2061 28.6362H18.2048C18.1821 28.6397 18.1615 28.6441 18.1433 28.6305C18.1231 28.6141 18.1058 28.5944 18.0919 28.5723L12.6059 20.5705ZM18.7652 14.4111L25.3991 7.77731C26.3176 6.85878 26.7774 6.39919 27.309 6.23119C27.7568 6.0896 28.2373 6.0896 28.6851 6.23119C29.2169 6.39897 29.6767 6.859 30.5952 7.77731L32.0329 9.21494L27.3147 16.5221C27.303 16.5433 27.2872 16.5619 27.2681 16.5767C27.2394 16.5964 27.1996 16.5883 27.1652 16.5767C26.7933 16.4639 26.3994 16.4433 26.0176 16.5169C25.6359 16.5904 25.2779 16.7559 24.9745 16.9989C24.9436 17.0309 24.8981 17.0127 24.8592 16.9957C24.2432 16.7275 19.4508 14.7023 18.7652 14.4111ZM33.0348 10.2168L37.3909 14.5732L36.3414 21.0747V21.0917C36.3403 21.1066 36.3372 21.1213 36.3322 21.1353C36.3208 21.158 36.2978 21.1626 36.2751 21.1694C36.0507 21.2374 35.8393 21.3427 35.6499 21.4809C35.6417 21.4867 35.634 21.4932 35.6269 21.5004C35.6145 21.5139 35.602 21.5266 35.5814 21.5288C35.5647 21.5294 35.548 21.5267 35.5322 21.5209L28.8938 18.7004L28.8813 18.6945C28.8391 18.6774 28.789 18.6568 28.789 18.6135C28.7499 18.2436 28.6291 17.887 28.4353 17.5694C28.4034 17.5169 28.3679 17.4622 28.3953 17.4087L33.0348 10.2168ZM28.5482 20.0365L34.7712 22.6722C34.8055 22.6882 34.8432 22.7028 34.858 22.7383C34.8639 22.7595 34.8639 22.782 34.858 22.8032C34.8368 22.9019 34.8253 23.0024 34.8237 23.1034V23.2779C34.8237 23.3215 34.7793 23.3396 34.7382 23.3567L34.7257 23.3613C33.7398 23.7824 20.8852 29.2638 20.8657 29.2638C20.8464 29.2638 20.8259 29.2638 20.8064 29.2443C20.7723 29.2102 20.8064 29.1623 20.837 29.1188C20.8427 29.1113 20.848 29.1037 20.8532 29.096L25.9672 21.1773L25.9763 21.1637C26.0061 21.1156 26.0402 21.0622 26.0949 21.0622L26.1463 21.0701C26.2627 21.0861 26.3655 21.1009 26.4692 21.1009C27.2451 21.1009 27.9639 20.7234 28.3975 20.0774C28.4079 20.0603 28.4211 20.0449 28.4364 20.0319C28.4672 20.0089 28.5127 20.0207 28.5482 20.0365ZM21.4213 30.5164L35.4331 24.541C35.4331 24.541 35.4537 24.541 35.4729 24.5602C35.5495 24.6368 35.6145 24.688 35.6772 24.7359L35.7081 24.7554C35.7365 24.7713 35.7652 24.7897 35.7674 24.8192C35.7674 24.8306 35.7674 24.8376 35.7652 24.8479L34.5647 32.2211L34.5601 32.2506C34.5522 32.3077 34.5441 32.3729 34.4905 32.3729C34.1705 32.3943 33.8605 32.4935 33.5875 32.662C33.3145 32.8304 33.0868 33.0629 32.9241 33.3393L32.9182 33.3483C32.9022 33.3746 32.8875 33.3997 32.8613 33.4135C32.8372 33.4249 32.8064 33.4203 32.7814 33.4146L21.6075 31.1096C21.5961 31.1074 21.4338 30.5175 21.4213 30.5164Z" fill="url(#paint0_radial_375_1208)"/>
</g>
</g>
<defs>
<radialGradient id="paint0_radial_375_1208" cx="0" cy="0" r="1" gradientUnits="userSpaceOnUse" gradientTransform="translate(4.69235 27.4012) rotate(90) scale(43.7019 50.4553)">
<stop stop-color="#20C6B7"/>
<stop offset="1" stop-color="#4D9ABF"/>
</radialGradient>
<clipPath id="clip0_375_1208">
<rect width="56" height="56" fill="white"/>
</clipPath>
</defs>
</svg>
