<svg width="56" height="56" viewBox="0 0 56 56" fill="none" xmlns="http://www.w3.org/2000/svg">
<g id="REACT ICON" clip-path="url(#clip0_375_1164)">
<g id="Group">
<path id="Vector" d="M42.875 0H13.125C5.87626 0 0 5.87626 0 13.125V42.875C0 50.1237 5.87626 56 13.125 56H42.875C50.1237 56 56 50.1237 56 42.875V13.125C56 5.87626 50.1237 0 42.875 0Z" fill="#242938"/>
<path id="Vector_2" d="M28.0004 32.1456C30.2544 32.1456 32.0814 30.3184 32.0814 28.0646C32.0814 25.8109 30.2544 23.9836 28.0004 23.9836C25.7467 23.9836 23.9194 25.8109 23.9194 28.0646C23.9194 30.3184 25.7467 32.1456 28.0004 32.1456Z" fill="#00D8FF"/>
<path id="Vector_3" d="M28.0004 19.7668C33.4797 19.7668 38.5698 20.553 42.4077 21.8745C47.0319 23.4663 49.875 25.8794 49.875 28.0645C49.875 30.3414 46.8619 32.905 41.8961 34.5502C38.1419 35.794 33.2017 36.4433 28.0004 36.4433C22.6677 36.4433 17.6179 35.8338 13.8213 34.5364C9.01797 32.8947 6.125 30.2981 6.125 28.0645C6.125 25.8971 8.83969 23.5027 13.3989 21.9132C17.2511 20.5701 22.4667 19.7668 27.9996 19.7668H28.0004Z" stroke="#00D8FF" stroke-width="0.835406"/>
<path id="Vector_4" d="M20.7769 23.9396C23.5143 19.1931 26.7381 15.1764 29.8001 12.5121C33.4891 9.30147 37.0001 8.04409 38.8927 9.13543C40.8652 10.2729 41.5807 14.1641 40.5252 19.2876C39.7279 23.161 37.8217 27.7648 35.2232 32.2707C32.559 36.8902 29.5085 40.9603 26.4882 43.6002C22.6665 46.9409 18.9716 48.1499 17.0367 47.0341C15.1592 45.9522 14.4412 42.4038 15.3421 37.6602C16.1031 33.6521 18.013 28.7326 20.776 23.9396H20.7769Z" stroke="#00D8FF" stroke-width="0.835406"/>
<path id="Vector_5" d="M20.784 32.2826C18.0389 27.5414 16.1699 22.7416 15.3899 18.7581C14.4508 13.9585 15.1147 10.289 17.0058 9.19438C18.9765 8.05338 22.7047 9.37682 26.6163 12.8501C29.5738 15.476 32.6107 19.426 35.2167 23.9274C37.8885 28.5426 39.891 33.2184 40.6699 37.1533C41.6556 42.1329 40.8578 45.9376 38.9247 47.0565C37.0492 48.1424 33.6168 46.9928 29.9569 43.8433C26.8646 41.1824 23.5562 37.071 20.784 32.2826Z" stroke="#00D8FF" stroke-width="0.835406"/>
</g>
</g>
<defs>
<clipPath id="clip0_375_1164">
<rect width="56" height="56" fill="white"/>
</clipPath>
</defs>
</svg>
