<svg width="56" height="56" viewBox="0 0 56 56" fill="none" xmlns="http://www.w3.org/2000/svg">
<g id="REST API">
<path id="Vector" d="M44.7998 35.9335C41.1598 35.9335 38.0798 38.1735 36.9598 41.5335H25.1998C25.1998 39.5735 24.6398 37.8935 23.7998 36.4935L43.6798 16.0535C44.5198 16.0535 45.3598 16.3335 46.1998 16.3335C50.1198 16.3335 53.1998 13.2535 53.1998 9.3335C53.1998 5.4135 50.1198 2.3335 46.1998 2.3335C42.2798 2.3335 39.1998 5.4135 39.1998 9.3335C39.1998 10.1735 39.4798 11.2935 39.7598 12.1335L20.1598 32.2935C18.4798 30.8935 16.2398 30.3335 13.9998 30.3335V18.5735C17.3598 17.4535 19.5998 14.3735 19.5998 10.7335C19.5998 5.9735 15.9598 2.3335 11.1998 2.3335C6.4398 2.3335 2.7998 5.9735 2.7998 10.7335C2.7998 14.3735 5.0398 17.4535 8.39981 18.5735V31.7335C5.0398 33.6935 2.7998 37.3335 2.7998 41.2535C2.7998 47.4135 7.8398 52.4535 13.9998 52.4535C18.1998 52.4535 21.8398 50.2135 23.5198 46.8535H36.6798C37.7998 49.9335 40.8798 52.4535 44.5198 52.4535C48.9998 52.4535 52.9198 48.8135 52.9198 44.0535C53.1998 39.5735 49.2798 35.9335 44.7998 35.9335Z" fill="white"/>
</g>
</svg>
