<svg width="56" height="56" viewBox="0 0 56 56" fill="none" xmlns="http://www.w3.org/2000/svg">
<g id="SASS ICON" clip-path="url(#clip0_375_1186)">
<g id="Group">
<path id="Vector" d="M42.875 0H13.125C5.87626 0 0 5.87626 0 13.125V42.875C0 50.1237 5.87626 56 13.125 56H42.875C50.1237 56 56 50.1237 56 42.875V13.125C56 5.87626 50.1237 0 42.875 0Z" fill="#CD6799"/>
<g id="Clip path group">
<mask id="mask0_375_1186" style="mask-type:luminance" maskUnits="userSpaceOnUse" x="6" y="11" width="44" height="34">
<g id="skillIconsSass0">
<path id="Vector_2" d="M6.125 11.5938H49.875V44.3863H6.125V11.5938Z" fill="white"/>
</g>
</mask>
<g mask="url(#mask0_375_1186)">
<g id="Group_2">
<path id="Vector_3" d="M43.7735 30.4419C42.2479 30.4497 40.9223 30.8172 39.8121 31.3602C39.4048 30.5536 38.9975 29.8348 38.9255 29.3076C38.8457 28.6927 38.7499 28.3174 38.8457 27.5826C38.9415 26.8478 39.3729 25.8017 39.3648 25.7219C39.3569 25.6418 39.269 25.2667 38.3905 25.2586C37.512 25.2507 36.7533 25.4264 36.6654 25.658C36.5775 25.8894 36.4099 26.4166 36.2981 26.9598C36.1463 27.7584 34.5409 30.6096 33.6226 32.103C33.3271 31.5201 33.0716 31.0089 33.0156 30.6015C32.9357 29.9866 32.8399 29.6113 32.9357 28.8765C33.0315 28.1417 33.4629 27.0954 33.4548 27.0156C33.4469 26.9357 33.359 26.5604 32.4805 26.5525C31.602 26.5444 30.8432 26.72 30.7554 26.9517C30.6675 27.1834 30.5717 27.7265 30.3879 28.2535C30.2044 28.7807 28.072 33.5407 27.5129 34.7705C27.287 35.2682 27.05 35.7608 26.8022 36.2479C26.8022 36.2479 26.7941 36.272 26.7703 36.3118C26.6923 36.4646 26.6124 36.6163 26.5305 36.767V36.7751C26.4108 36.9908 26.2829 37.1903 26.219 37.1903C26.1711 37.1903 26.0834 36.6154 26.235 35.8327C26.5546 34.1794 27.3132 31.6078 27.3053 31.5201C27.3053 31.4722 27.449 31.0248 26.8101 30.7932C26.1871 30.5615 25.9635 30.945 25.9075 30.945C25.8517 30.945 25.8117 31.0808 25.8117 31.0808C25.8117 31.0808 26.5067 28.1896 24.4861 28.1896C23.2241 28.1896 21.4831 29.5712 20.6208 30.8172C19.6402 31.3508 18.6604 31.8859 17.6814 32.4224C17.2104 32.686 16.7233 32.9496 16.2678 33.1972C16.2359 33.1653 16.204 33.1253 16.172 33.0933C13.7282 30.4817 9.20791 28.637 9.39953 25.1308C9.4715 23.8529 9.91075 20.4986 18.0808 16.4254C24.8054 13.1112 30.1565 14.0295 31.0829 16.066C32.4085 18.9732 28.2158 24.372 21.2676 25.1547C18.6159 25.4502 17.2264 24.428 16.8751 24.0447C16.5076 23.6453 16.4516 23.6214 16.3158 23.7013C16.0922 23.8209 16.2359 24.1804 16.3158 24.3879C16.5236 24.9311 17.378 25.8894 18.8235 26.3606C20.1014 26.776 23.2081 27.0077 26.9698 25.5541C31.1787 23.9249 34.4692 19.3963 33.5027 15.603C32.5365 11.7534 26.1473 10.4835 20.1014 12.6319C16.5074 13.9098 12.6101 15.9223 9.80685 18.5419C6.47638 21.6569 5.94941 24.3641 6.1651 25.4981C6.93969 29.5233 12.4903 32.1429 14.7106 34.0836C14.5988 34.1475 14.4949 34.2035 14.4072 34.2514C13.297 34.8024 9.06419 37.0146 8.00982 39.3548C6.81194 42.0063 8.20166 43.907 9.11997 44.1625C11.9712 44.9533 14.9022 43.5316 16.4757 41.1836C18.0489 38.8355 17.8573 35.7848 17.1304 34.3872C17.1226 34.3695 17.1118 34.3533 17.0984 34.3393C17.3861 34.1715 17.6814 33.9959 17.9691 33.8281C18.4976 33.5158 19.0328 33.2149 19.5743 32.9255C19.3028 33.6684 19.1031 34.5548 19.0073 35.8327C18.8876 37.3342 19.5025 39.2829 20.309 40.0496C20.6684 40.3849 21.0917 40.393 21.3634 40.393C22.3058 40.393 22.7291 39.6103 23.2003 38.6839C23.7751 37.5497 24.2944 36.2319 24.2944 36.2319C24.2944 36.2319 23.6474 39.7941 25.4044 39.7941C26.0433 39.7941 26.6902 38.9635 26.9778 38.5402V38.5481C26.9778 38.5481 26.9938 38.5242 27.0258 38.4682C27.0896 38.3643 27.1294 38.3004 27.1294 38.3004V38.2845C27.3852 37.8374 27.96 36.823 28.8147 35.1378C29.9168 32.9656 30.979 30.2502 30.979 30.2502C30.979 30.2502 31.0748 30.913 31.4023 32.0151C31.5939 32.6622 31.9933 33.3729 32.3127 34.0598C32.0572 34.4192 31.8975 34.6187 31.8975 34.6187L31.9054 34.6268C31.6978 34.8982 31.4743 35.1938 31.2266 35.4812C30.356 36.5196 29.3178 37.7096 29.1741 38.053C29.0063 38.4604 29.0463 38.7557 29.3657 38.9954C29.5974 39.1711 30.0126 39.1949 30.4358 39.1711C31.2185 39.1151 31.7698 38.9234 32.0413 38.8036C32.4645 38.652 32.9598 38.4203 33.4229 38.0769C34.2775 37.446 34.7966 36.5434 34.7487 35.3534C34.7247 34.6985 34.509 34.0438 34.2456 33.4287C34.3254 33.3169 34.3972 33.2051 34.477 33.0933C35.8269 31.1206 36.873 28.9563 36.873 28.9563C36.873 28.9563 36.9688 29.6191 37.2963 30.7214C37.456 31.2803 37.7834 31.8874 38.0711 32.4784C36.8013 33.5087 36.0186 34.7066 35.739 35.4893C35.2359 36.9429 35.6272 37.5976 36.3699 37.7494C36.7054 37.8214 37.1845 37.6617 37.536 37.5099C37.9832 37.3662 38.5103 37.1185 39.0135 36.751C39.8679 36.1202 40.6906 35.2417 40.6427 34.0517C40.6187 33.5087 40.4749 32.9735 40.2752 32.4544C41.3534 32.0072 42.7432 31.7596 44.5161 31.9672C48.3178 32.4145 49.0685 34.7864 48.9246 35.7848C48.7809 36.783 47.9822 37.3261 47.7186 37.4939C47.4553 37.6617 47.3673 37.7175 47.3914 37.8374C47.4233 38.013 47.5511 38.0049 47.7746 37.973C48.0861 37.9172 49.7712 37.1664 49.8431 35.3296C49.963 32.9815 47.7267 30.4178 43.7735 30.4419ZM14.447 40.3291C13.1852 41.7027 11.4282 42.222 10.6694 41.7827C9.85475 41.3113 10.1741 39.2829 11.7238 37.8293C12.6659 36.9429 13.88 36.1202 14.6865 35.617C14.8703 35.5053 15.1417 35.3456 15.4692 35.1459C15.5252 35.1139 15.5571 35.0979 15.5571 35.0979L15.7488 34.9781C16.3158 37.0547 15.7726 38.8836 14.447 40.3291ZM23.6316 34.0836C23.1924 35.154 22.2741 37.8931 21.7149 37.7415C21.2359 37.6136 20.9403 35.5372 21.6191 33.4847C21.9626 32.4544 22.6893 31.2245 23.1125 30.7453C23.7994 29.9785 24.558 29.723 24.7418 30.0345C24.9734 30.4419 23.9033 33.4127 23.6316 34.0836ZM31.2109 37.7096C31.0271 37.8054 30.8515 37.8693 30.7716 37.8214C30.7156 37.7894 30.8515 37.6617 30.8515 37.6617C30.8515 37.6617 31.8019 36.6393 32.1773 36.1762C32.3928 35.9045 32.6485 35.5851 32.92 35.2257V35.3296C32.92 36.5515 31.7381 37.374 31.2109 37.7096ZM37.057 36.3757C36.9211 36.2799 36.9452 35.9605 37.4004 34.9621C37.5761 34.5708 37.9915 33.916 38.7022 33.2849C38.782 33.5407 38.838 33.7881 38.8299 34.0197C38.8221 35.5613 37.7198 36.1361 37.057 36.3757Z" fill="white"/>
</g>
</g>
</g>
</g>
</g>
<defs>
<clipPath id="clip0_375_1186">
<rect width="56" height="56" fill="white"/>
</clipPath>
</defs>
</svg>
