<svg width="57" height="56" viewBox="0 0 57 56" fill="none" xmlns="http://www.w3.org/2000/svg">
<g id="ICON SEO">
<g id="Group">
<path id="Vector" d="M49.7615 9.33325H6.90517C5.85297 9.33325 5 10.1862 5 11.2384V44.7614C5 45.8136 5.85297 46.6666 6.90517 46.6666H49.7615C50.8137 46.6666 51.6667 45.8136 51.6667 44.7614V11.2384C51.6667 10.1862 50.8137 9.33325 49.7615 9.33325Z" fill="#2F88FF" stroke="black" stroke-width="2"/>
<path id="Vector_2" d="M19 22.1057C16.6667 18.6664 12.5808 20.9269 12.8737 24.4633C13.1667 27.9997 17.8333 27.9997 18.1248 31.5361C18.4163 35.0725 14.3333 37.333 12 33.8937" stroke="white" stroke-width="2" stroke-linecap="round" stroke-linejoin="round"/>
<path id="Vector_3" d="M30.6667 21H26V36.1667H30.6667" stroke="white" stroke-width="2" stroke-linecap="round" stroke-linejoin="round"/>
<path id="Vector_4" d="M26 29.1665H30.6667" stroke="white" stroke-width="2" stroke-linecap="round" stroke-linejoin="round"/>
<path id="Vector_5" d="M44.6665 24.5C44.6665 22.567 43.0995 21 41.1665 21C39.2335 21 37.6665 22.567 37.6665 24.5V32.6667C37.6665 34.5997 39.2335 36.1667 41.1665 36.1667C43.0995 36.1667 44.6665 34.5997 44.6665 32.6667V24.5Z" stroke="white" stroke-width="2" stroke-linecap="round" stroke-linejoin="round"/>
</g>
</g>
</svg>
