<svg width="18" height="18" viewBox="0 0 18 18" fill="none" xmlns="http://www.w3.org/2000/svg">
<g id="basil:sun-solid" clip-path="url(#clip0_187_1621)">
<path id="Vector" d="M9 0.9375C9.14918 0.9375 9.29226 0.996763 9.39775 1.10225C9.50324 1.20774 9.5625 1.35082 9.5625 1.5V2.25C9.5625 2.39918 9.50324 2.54226 9.39775 2.64775C9.29226 2.75324 9.14918 2.8125 9 2.8125C8.85082 2.8125 8.70774 2.75324 8.60225 2.64775C8.49676 2.54226 8.4375 2.39918 8.4375 2.25V1.5C8.4375 1.35082 8.49676 1.20774 8.60225 1.10225C8.70774 0.996763 8.85082 0.9375 9 0.9375ZM9 4.6875C7.85625 4.6875 6.75935 5.14185 5.9506 5.9506C5.14185 6.75935 4.6875 7.85625 4.6875 9C4.6875 10.1437 5.14185 11.2406 5.9506 12.0494C6.75935 12.8581 7.85625 13.3125 9 13.3125C10.1437 13.3125 11.2406 12.8581 12.0494 12.0494C12.8581 11.2406 13.3125 10.1437 13.3125 9C13.3125 7.85625 12.8581 6.75935 12.0494 5.9506C11.2406 5.14185 10.1437 4.6875 9 4.6875ZM4.095 3.29925C3.98896 3.19674 3.8469 3.13997 3.69941 3.14118C3.55192 3.14239 3.41081 3.20148 3.30647 3.30573C3.20213 3.40997 3.14291 3.55103 3.14155 3.69851C3.1402 3.846 3.19684 3.98811 3.29925 4.09425L3.8295 4.6245C3.881 4.67976 3.9431 4.72409 4.0121 4.75484C4.0811 4.78558 4.15558 4.80211 4.23111 4.80344C4.30664 4.80478 4.38166 4.79088 4.4517 4.76259C4.52174 4.7343 4.58536 4.69219 4.63878 4.63878C4.69219 4.58536 4.7343 4.52174 4.76259 4.4517C4.79088 4.38166 4.80478 4.30664 4.80344 4.23111C4.80211 4.15558 4.78558 4.0811 4.75484 4.0121C4.72409 3.9431 4.67976 3.881 4.6245 3.8295L4.095 3.29925ZM17.0625 9C17.0625 9.14918 17.0032 9.29226 16.8977 9.39775C16.7923 9.50324 16.6492 9.5625 16.5 9.5625H15.75C15.6008 9.5625 15.4577 9.50324 15.3523 9.39775C15.2468 9.29226 15.1875 9.14918 15.1875 9C15.1875 8.85082 15.2468 8.70774 15.3523 8.60225C15.4577 8.49676 15.6008 8.4375 15.75 8.4375H16.5C16.6492 8.4375 16.7923 8.49676 16.8977 8.60225C17.0032 8.70774 17.0625 8.85082 17.0625 9ZM14.7008 4.095C14.7545 4.04314 14.7974 3.98109 14.8269 3.91247C14.8564 3.84386 14.872 3.77006 14.8726 3.69537C14.8733 3.62068 14.8591 3.54661 14.8309 3.47746C14.8026 3.40832 14.7609 3.3455 14.7081 3.29266C14.6553 3.23982 14.5925 3.19802 14.5234 3.16971C14.4543 3.14139 14.3802 3.12712 14.3055 3.12774C14.2309 3.12835 14.157 3.14383 14.0884 3.17328C14.0198 3.20273 13.9577 3.24555 13.9058 3.29925L13.3755 3.8295C13.3202 3.881 13.2759 3.9431 13.2452 4.0121C13.2144 4.0811 13.1979 4.15558 13.1966 4.23111C13.1952 4.30664 13.2091 4.38166 13.2374 4.4517C13.2657 4.52174 13.3078 4.58536 13.3612 4.63878C13.4146 4.69219 13.4783 4.7343 13.5483 4.76259C13.6183 4.79088 13.6934 4.80478 13.7689 4.80344C13.8444 4.80211 13.9189 4.78558 13.9879 4.75484C14.0569 4.72409 14.119 4.67976 14.1705 4.6245L14.7008 4.095ZM9 15.1875C9.14918 15.1875 9.29226 15.2468 9.39775 15.3523C9.50324 15.4577 9.5625 15.6008 9.5625 15.75V16.5C9.5625 16.6492 9.50324 16.7923 9.39775 16.8977C9.29226 17.0032 9.14918 17.0625 9 17.0625C8.85082 17.0625 8.70774 17.0032 8.60225 16.8977C8.49676 16.7923 8.4375 16.6492 8.4375 16.5V15.75C8.4375 15.6008 8.49676 15.4577 8.60225 15.3523C8.70774 15.2468 8.85082 15.1875 9 15.1875ZM14.1705 13.3755C14.119 13.3202 14.0569 13.2759 13.9879 13.2452C13.9189 13.2144 13.8444 13.1979 13.7689 13.1966C13.6934 13.1952 13.6183 13.2091 13.5483 13.2374C13.4783 13.2657 13.4146 13.3078 13.3612 13.3612C13.3078 13.4146 13.2657 13.4783 13.2374 13.5483C13.2091 13.6183 13.1952 13.6934 13.1966 13.7689C13.1979 13.8444 13.2144 13.9189 13.2452 13.9879C13.2759 14.0569 13.3202 14.119 13.3755 14.1705L13.9058 14.7008C13.9572 14.756 14.0193 14.8003 14.0883 14.8311C14.1573 14.8618 14.2318 14.8784 14.3074 14.8797C14.3829 14.881 14.4579 14.8671 14.5279 14.8388C14.598 14.8106 14.6616 14.7684 14.715 14.715C14.7684 14.6616 14.8106 14.598 14.8388 14.5279C14.8671 14.4579 14.881 14.3829 14.8797 14.3074C14.8784 14.2318 14.8618 14.1573 14.8311 14.0883C14.8003 14.0193 14.756 13.9572 14.7008 13.9058L14.1705 13.3755ZM2.8125 9C2.8125 9.14918 2.75324 9.29226 2.64775 9.39775C2.54226 9.50324 2.39918 9.5625 2.25 9.5625H1.5C1.35082 9.5625 1.20774 9.50324 1.10225 9.39775C0.996763 9.29226 0.9375 9.14918 0.9375 9C0.9375 8.85082 0.996763 8.70774 1.10225 8.60225C1.20774 8.49676 1.35082 8.4375 1.5 8.4375H2.25C2.39918 8.4375 2.54226 8.49676 2.64775 8.60225C2.75324 8.70774 2.8125 8.85082 2.8125 9ZM4.6245 14.1705C4.72386 14.0639 4.77795 13.9228 4.77538 13.7771C4.77281 13.6314 4.71378 13.4923 4.61072 13.3893C4.50766 13.2862 4.36862 13.2272 4.22289 13.2246C4.07717 13.222 3.93613 13.2761 3.8295 13.3755L3.29925 13.9058C3.19989 14.0124 3.1458 14.1534 3.14837 14.2991C3.15094 14.4449 3.20997 14.5839 3.31303 14.687C3.41609 14.79 3.55513 14.8491 3.70086 14.8516C3.84658 14.8542 3.98762 14.8001 4.09425 14.7008L4.6245 14.1705Z" fill="#B59900"/>
</g>
<defs>
<clipPath id="clip0_187_1621">
<rect width="18" height="18" fill="white"/>
</clipPath>
</defs>
</svg>
